<svg xmlns="http://www.w3.org/2000/svg" viewBox="0 0 550.505 180.657"><linearGradient id="a" x1="203.145" x2="608.196" y1="-39.226" y2="365.825" gradientTransform="matrix(.71773 0 0 -.71783 -12.09 203.386)" gradientUnits="userSpaceOnUse"><stop offset="0" stop-color="#090171"/><stop offset=".85" stop-color="#ff005a"/></linearGradient><path fill="url(#a)" d="M459.958 179.5H90.042C40.806 179.5.828 139.517.828 90.274.828 40.96 40.806.977 90.042.977h369.844c49.308 0 89.286 39.983 89.286 89.297 0 49.243-39.978 89.226-89.214 89.226z"/><path fill="#fff" d="M220.31 96.806h-50.816c2.082 9.404 8.613 14.285 17.872 14.285 6.961 0 11.986-2.153 17.727-7.465l11.843 10.48c-6.819 8.47-16.58 13.639-29.786 13.639-21.89 0-38.111-15.362-38.111-37.686v-.287c0-20.817 14.857-37.973 36.102-37.973 24.402 0 35.527 18.95 35.527 39.624v.287c-.143 1.938-.215 3.158-.359 5.096zM184.996 68.31c-8.613 0-14.14 6.101-15.79 15.505h31.15c-1.149-9.26-6.604-15.505-15.36-15.505zM279.163 126.022V83.527c0-9.835-4.665-13.065-12.56-13.065s-12.92 3.23-12.92 13.065v42.495h-20.67V77.856c0-18.448 13.924-26.057 33.446-26.057 18.446 0 33.446 7.609 33.446 26.057v48.166h-20.742zM419.263 53.09v48.167c0 18.448-14.929 26.057-33.446 26.057-19.522 0-33.446-7.609-33.446-26.057V53.09h20.67v41.92c0 9.835 5.025 13.64 12.92 13.64s12.56-3.805 12.56-13.64V53.09h20.742zM315.91 53.091h20.671v73.003H315.91zM315.91 23.086h20.671v18.448H315.91zM461.322 127.386c-10.192 0-21.675-3.374-31.293-11.055l8.828-13.638c7.895 5.742 16.22 8.685 22.967 8.685 5.957 0 8.685-2.153 8.685-5.455v-.287c0-4.523-7.106-6.03-15.072-8.47-10.192-3.016-21.748-7.753-21.748-21.894v-.287c0-14.86 11.986-23.114 26.7-23.114 9.259 0 19.307 3.158 27.202 8.47l-7.895 14.285c-7.178-4.236-14.427-6.82-19.738-6.82-5.024 0-7.608 2.154-7.608 5.025v.287c0 4.092 6.962 6.03 14.857 8.686 10.192 3.374 22.034 8.327 22.034 21.678v.287c0 16.295-12.13 23.617-27.92 23.617zM98.942 122.002c-22.609 0-39.332-13.926-39.332-34.886v-.287c0-20.96 16.867-35.102 39.619-35.102 22.608 0 39.331 13.854 39.331 34.886v.287c0 20.89-16.866 35.102-39.618 35.102zm19.235-35.173c0-10.768-7.752-17.3-19.164-17.3-11.842 0-18.948 6.245-18.948 17.013v.287c0 10.767 7.752 17.3 19.164 17.3 11.842 0 18.948-6.246 18.948-17.013v-.287z"/><path fill="#fff" d="M97.865 153.658c-13.422 0-26.556-3.876-37.25-10.91l9.833-14.788c8.038 5.384 18.158 8.183 28.565 7.968 7.536-.144 15.073-1.866 21.747-4.81-5.239-9.331-8.182-17.873-8.182-27.636l17.8-1.938c-.287 12.92 6.675 24.19 16.005 34.671-9.976 9.978-32.154 17.515-46.939 17.515-.574-.144-1.077-.072-1.579-.072zM130.234 72.113l-17.727-1.507c.933-11.055 8.612-23.186 19.45-30.938l10.335 14.5c-7.32 5.168-11.627 12.92-12.058 17.945z"/></svg>