<svg width="177" height="47" viewBox="0 0 177 47" fill="none" xmlns="http://www.w3.org/2000/svg">
<path d="M155.3 19.5067V29.0481H162.982V33.536C162.38 33.8894 161.707 34.1368 160.928 34.3135C160.15 34.4902 159.123 34.5608 157.849 34.5608C156.256 34.5608 154.84 34.3135 153.53 33.7834C152.22 33.2887 151.087 32.5466 150.167 31.5924C149.211 30.6383 148.503 29.5075 147.972 28.1999C147.441 26.8924 147.158 25.4436 147.158 23.8533V23.712C147.158 22.1924 147.406 20.7789 147.901 19.4714C148.397 18.1992 149.105 17.0684 149.99 16.1496C150.875 15.1954 151.972 14.4887 153.211 13.9586C154.45 13.4285 155.795 13.1458 157.247 13.1458C159.123 13.1458 160.893 13.4992 162.521 14.1706C164.15 14.842 165.707 15.7962 167.194 17.0684L175.584 6.9616C173.141 4.8413 170.38 3.14506 167.265 1.97889C164.15 0.777388 160.681 0.176636 156.787 0.176636C153.247 0.176636 149.954 0.777388 146.945 1.94355C143.936 3.10972 141.317 4.73528 139.087 6.85558C136.856 8.94055 135.122 11.4142 133.883 14.2766C132.785 16.7857 132.184 19.5067 132.042 22.3691L123.015 0.812726H108.147L95.3322 31.4157V1.13077H79.65L70.0212 16.8917L60.4278 1.13077H44.781V11.1669C44.0376 9.824 43.1526 8.58716 42.1614 7.45634C40.179 5.23002 37.701 3.4631 34.692 2.15558C31.683 0.848064 28.1076 0.176636 24.0366 0.176636C20.532 0.176636 17.3106 0.777388 14.3724 1.97889C11.4342 3.1804 8.8854 4.8413 6.7614 6.9616C4.6374 9.0819 2.9736 11.5556 1.8054 14.3827C0.6372 17.2097 0.0354004 20.2488 0.0354004 23.4999V23.6766C0.0354004 27.1398 0.6726 30.3202 1.9116 33.1827C3.186 36.0451 4.9206 38.4834 7.1862 40.4977C9.4518 42.512 12.1068 44.0669 15.222 45.1977C18.3372 46.3285 21.7356 46.8939 25.488 46.8939C30.2316 46.8939 34.3026 46.0811 37.6656 44.4202C39.3294 43.6075 40.8162 42.6533 42.1968 41.5932L34.6566 32.4759C33.7362 33.1473 32.7804 33.6774 31.86 34.0661C30.1962 34.7729 28.3554 35.1263 26.373 35.1263C23.7534 35.1263 21.5232 34.5255 19.7532 33.324C18.2664 32.2992 17.169 30.8503 16.461 28.942H44.7456V45.9398H59.3658V23.7473L69.738 39.6849H69.9858L80.358 23.7473V45.9751H105.244L107.545 39.9676H123.263L125.635 45.9751H141.919L139.795 40.9217C141.989 42.7947 144.503 44.2436 147.37 45.2684C150.415 46.3639 153.707 46.9293 157.211 46.9293C161.318 46.9293 165.035 46.3285 168.362 45.0917C171.69 43.8548 174.593 42.2293 177.035 40.2503V19.5067H155.3ZM15.93 19.4714C16.4256 17.1744 17.3106 15.3014 18.6558 13.9233C20.0718 12.4744 21.8772 11.7323 24.1074 11.7323C26.373 11.7323 28.2492 12.4744 29.736 13.9233C31.1166 15.3014 32.0016 17.1744 32.3202 19.4714H15.93ZM111.333 29.3308L115.439 18.4466L119.546 29.3308H111.333Z" fill="url(#paint0_linear_3671_593)"/>
<defs>
<linearGradient id="paint0_linear_3671_593" x1="1.4468" y1="23.5443" x2="175.635" y2="23.5443" gradientUnits="userSpaceOnUse">
<stop offset="0.05" stop-color="#FF1D25"/>
<stop offset="0.35" stop-color="#A0328C"/>
<stop offset="0.45" stop-color="#7040A4"/>
<stop offset="0.55" stop-color="#4359C7"/>
<stop offset="0.7" stop-color="#0082E6"/>
</linearGradient>
</defs>
</svg>
